<svg width="24" height="24" viewBox="0 0 24 24" fill="none" xmlns="http://www.w3.org/2000/svg">
<path fill-rule="evenodd" clip-rule="evenodd" d="M2.95666 4.27893C2.42173 4.30213 2 4.74256 2 5.27799V19.5028C2 20.0551 2.44771 20.5028 3 20.5028H21C21.5523 20.5028 22 20.0551 22 19.5028V4.49718C22 3.92789 21.5254 3.47345 20.9567 3.49812L2.95666 4.27893ZM10.8258 10.6129C10.9723 10.4664 11.2097 10.4664 11.3562 10.6129L11.8865 11.1432C12.0329 11.2896 12.0329 11.5271 11.8865 11.6735L7.56059 15.9994H10.625C10.8321 15.9994 11 16.1673 11 16.3744V17.1244C11 17.3315 10.8321 17.4994 10.625 17.4994H5.75H5.375C5.16789 17.4994 5 17.3315 5 17.1244V16.7494V11.8744C5 11.6673 5.16789 11.4994 5.375 11.4994H6.125C6.33211 11.4994 6.5 11.6673 6.5 11.8744V14.9387L10.8258 10.6129Z" fill="white"/>
</svg>
