<svg width="24" height="24" viewBox="0 0 24 24" fill="none" xmlns="http://www.w3.org/2000/svg">
<path d="M15.0665 2.29557L21.6921 8.92118C21.8892 9.11823 21.9877 9.36453 21.9877 9.6601C21.9877 9.93924 21.8892 10.1773 21.6921 10.3744L10.3621 21.6798C10.165 21.8933 9.92694 22 9.6478 22C9.36865 22 9.12235 21.8933 8.90888 21.6798L2.30789 15.0788C2.11085 14.8654 2.01233 14.619 2.01233 14.3399C2.01233 14.0608 2.11085 13.8227 2.30789 13.6256L13.6133 2.29557C13.8103 2.09852 14.0485 2 14.3276 2C14.6232 2 14.8695 2.09852 15.0665 2.29557ZM8.19458 11.5813C8.09606 11.4828 7.97292 11.4335 7.82514 11.4335C7.69377 11.4335 7.57883 11.4828 7.48031 11.5813L5.28818 13.7734C5.18965 13.8719 5.14041 13.9951 5.14041 14.1429C5.14041 14.2906 5.18965 14.4138 5.28818 14.5123L9.47539 18.6995C9.59033 18.8144 9.71347 18.8719 9.84483 18.8719C9.99261 18.8719 10.1158 18.8144 10.2143 18.6995L12.4064 16.5074C12.5049 16.4089 12.5542 16.2939 12.5542 16.1626C12.5542 16.0148 12.5049 15.8916 12.4064 15.7931L8.19458 11.5813Z" fill="white"/>
</svg>
