<svg width="24" height="24" viewBox="0 0 24 24" fill="none" xmlns="http://www.w3.org/2000/svg">
<g clip-path="url(#clip0_172_275)">
<path d="M11.1236 18.5229H4.16946C3.68731 18.5229 3.27004 18.356 2.9177 18.0223C2.5839 17.6885 2.417 17.2805 2.417 16.7983V6.33936H1.22091C1.20237 6.3579 1.16527 6.36718 1.10964 6.36718C0.757296 6.36718 0.451325 6.23737 0.191705 5.97775C-0.0493706 5.71813 -0.169922 5.41215 -0.169922 5.0598C-0.169922 4.70746 -0.0493706 4.40148 0.191705 4.14186C0.451325 3.88224 0.757296 3.75243 1.10964 3.75243H22.8621C23.233 3.75243 23.5389 3.88224 23.78 4.14186C24.0396 4.38294 24.1694 4.68892 24.1694 5.0598C24.1694 5.41215 24.0396 5.71813 23.78 5.97775C23.5389 6.23737 23.233 6.36718 22.8621 6.36718H21.5547V16.7983C21.5547 17.2619 21.3878 17.6699 21.054 18.0223C20.7202 18.356 20.3122 18.5229 19.8301 18.5229H12.8482V20.2476H11.1236V18.5229ZM15.4629 20.2476C15.704 20.2476 15.908 20.3403 16.0749 20.5257C16.2418 20.6926 16.3252 20.8966 16.3252 21.1377C16.3252 21.3788 16.2418 21.5828 16.0749 21.7497C15.908 21.9166 15.704 22 15.4629 22H8.50881C8.26773 22 8.06376 21.9166 7.89686 21.7497C7.72996 21.5828 7.64651 21.3788 7.64651 21.1377C7.64651 20.8966 7.72996 20.6926 7.89686 20.5257C8.06376 20.3403 8.26773 20.2476 8.50881 20.2476H15.4629ZM11.9302 3.75243H11.1236V2.86231C11.1236 2.62123 11.207 2.41724 11.3739 2.25035C11.5408 2.08345 11.7448 2 11.9859 2C12.2269 2 12.4309 2.08345 12.5978 2.25035C12.7647 2.41724 12.8482 2.62123 12.8482 2.86231V3.75243H11.9302Z" fill="white"/>
<path d="M14.5191 14.8121L8.70703 9M9.00011 14.8126L14.8127 9.00034" stroke="#1F1F1F" stroke-width="2" stroke-linecap="round"/>
</g>
<defs>
<clipPath id="clip0_172_275">
<rect width="24" height="24" fill="white"/>
</clipPath>
</defs>
</svg>
