<svg width="24" height="24" viewBox="0 0 24 24" fill="none" xmlns="http://www.w3.org/2000/svg">
<path d="M5.72106 15.9716L3.71327 3.00395C3.6389 2.6693 3.65747 2.41831 3.76902 2.25099C3.88057 2.08366 4.0479 2 4.271 2C4.4941 2 4.71711 2.07437 4.94021 2.2231C6.72502 3.39438 9.28149 5.10481 12.6094 7.3544C15.677 9.45526 18.1125 11.1285 19.9159 12.3742C20.1204 12.5229 20.2505 12.6995 20.3062 12.904C20.362 13.1085 20.3249 13.2944 20.1947 13.4618C20.0832 13.6105 19.8973 13.6849 19.637 13.6849H13.3902L17.6291 19.7365C17.722 19.8666 17.75 20.0153 17.7128 20.1827C17.6942 20.3314 17.6198 20.4522 17.4897 20.5452L15.5654 21.8838C15.4353 21.9768 15.2865 22.0139 15.1192 21.9953C14.9704 21.9582 14.8496 21.8745 14.7566 21.7444L10.2389 15.2745L7.58956 19.9038C7.45942 20.1269 7.30144 20.2756 7.11552 20.35C6.92961 20.4058 6.75292 20.3872 6.5856 20.2942C6.43686 20.2013 6.34392 20.0339 6.30673 19.7922L6.00007 17.8959C5.88852 17.0779 5.79543 16.4364 5.72106 15.9716Z" fill="white"/>
</svg>
