<svg width="24" height="24" viewBox="0 0 24 24" fill="none" xmlns="http://www.w3.org/2000/svg">
<path d="M16.996 2.34419L21.6823 7.00397C21.8941 7.23343 22 7.49819 22 7.79825C22 8.09831 21.8941 8.35425 21.6823 8.56606L10.8271 19.4212L4.57877 13.1994L15.4339 2.34419C15.6457 2.11473 15.9017 2 16.2018 2C16.5195 2 16.7842 2.11473 16.996 2.34419ZM9.63571 20.5862L9.50333 20.6391L2.6725 21.9894C2.47834 22.0247 2.31066 21.9718 2.16946 21.8306C2.02825 21.707 1.97529 21.5481 2.01059 21.354L3.38736 14.5232C3.38736 14.4879 3.40502 14.4349 3.44032 14.3643L9.63571 20.5862Z" fill="white"/>
</svg>
