<svg width="24" height="24" viewBox="0 0 24 24" fill="none" xmlns="http://www.w3.org/2000/svg">
<path fill-rule="evenodd" clip-rule="evenodd" d="M21.1749 3.19033C21.2959 3.31432 21.3512 3.45083 21.3512 3.62667L21.3512 15.7344L18.9141 14.0608V5.43716H5.30084V19.0505H14.7641L15.0947 21.4876H3.49029C3.31451 21.4876 3.178 21.4323 3.05397 21.3113C2.92046 21.1636 2.86368 21.0107 2.86368 20.8334V3.62667C2.86368 3.44751 2.92108 3.30918 3.04695 3.18331C3.17285 3.0574 3.31118 3 3.49029 3H20.697C20.8743 3 21.0272 3.0568 21.1749 3.19033ZM15.042 13.7475L16.02 20.0637C16.0562 20.2901 16.1015 20.6026 16.1559 21.001L16.3052 21.9247C16.3234 22.0424 16.3686 22.1239 16.4411 22.1692C16.5226 22.2144 16.6086 22.2235 16.6992 22.1963C16.7897 22.1601 16.8667 22.0877 16.9301 21.979L18.2205 19.7242L20.421 22.8755C20.4663 22.9389 20.5251 22.9796 20.5976 22.9978C20.6791 23.0068 20.7515 22.9887 20.8149 22.9434L21.7522 22.2914C21.8156 22.2461 21.8518 22.1873 21.8609 22.1148C21.879 22.0333 21.8654 21.9609 21.8201 21.8975L19.7555 18.9499H22.7981C22.9249 18.9499 23.0154 18.9137 23.0698 18.8412C23.1332 18.7597 23.1512 18.6692 23.1241 18.5696C23.0969 18.47 23.0336 18.3839 22.934 18.3115C22.0556 17.7048 20.8693 16.8898 19.3751 15.8665C17.7542 14.7708 16.509 13.9377 15.6396 13.3672C15.531 13.2947 15.4224 13.2585 15.3137 13.2585C15.205 13.2585 15.1235 13.2992 15.0692 13.3807C15.0149 13.4622 15.0058 13.5845 15.042 13.7475Z" fill="white"/>
</svg>
